<svg xmlns="http://www.w3.org/2000/svg" viewBox="0 0 32 32" fill="none">
  <circle cx="16" cy="16" r="16" fill="#F4B731"/>
  <path fill="#FFF" fill-rule="evenodd" d="M9.5 14.2h4.2c.5 0 .9.2 1.2.5.3.3.5.7.5 1.2s-.2.9-.5 1.2c-.3.3-.7.5-1.2.5H9.5v-3.4zm0 4.6h4.8c.7 0 1.3-.2 1.8-.6.5-.4.8-1 .9-1.6v-.2c-.1-.6-.4-1.2-.9-1.6-.5-.4-1.1-.6-1.8-.6H9.5v4.6zm5.5-5.2h-5.5V9.2h5.5c.8 0 1.5.2 2.1.6.6.4 1 .9 1.3 1.5.2.6.4 1.2.4 1.9s-.1 1.3-.4 1.9c-.3.6-.7 1.1-1.3 1.5-.6.4-1.3.6-2.1.6zm2.2 5.2V9.2h4.2c.5 0 .9.2 1.2.5.3.3.5.7.5 1.2s-.2.9-.5 1.2c-.3.3-.7.5-1.2.5h-4.2v7.4zm0-4.6h3.8c.7 0 1.3-.2 1.8-.6.5-.4.8-1 .9-1.6v-.2c-.1-.6-.4-1.2-.9-1.6-.5-.4-1.1-.6-1.8-.6h-3.8v4.6zm4.3-4.2c.6.4 1 .9 1.3 1.5.2.6.4 1.2.4 1.9s-.1 1.3-.4 1.9c-.3.6-.7 1.1-1.3 1.5-.6.4-1.3.6-2.1.6h-2.2V9.2h2.2c.8 0 1.5.2 2.1.6z" clip-rule="evenodd"/>
</svg>
