<?xml version="1.0" encoding="UTF-8"?>
<svg xmlns="http://www.w3.org/2000/svg" viewBox="0 0 1011.02 871.27">
  <g style="isolation: isolate;">
    <g id="uuid-cb3a889d-fb5d-4dee-8710-6467c9e878a2" data-name="Calque 1">
      <path d="M913.78,195.46l38.22-121.85L1009.97,1.64H1.24l12.85,12.39,57.73,202.53,157.79,176.79-.17,5.84s-.03,0-.05,0c-2.87,0-5.2,2.33-5.2,5.2s2.33,5.2,5.2,5.2c1.54,0,2.91-.68,3.86-1.75l12.32,10.72,31.91,153.71,161.85,128.1,33.16,170.9,25.15-88.5,5.3,16.95c-2.11.66-3.65,2.61-3.65,4.94,0,2.87,2.33,5.2,5.2,5.2s5.2-2.33,5.2-5.2c0-2.24-1.43-4.13-3.41-4.86l24.77-116.04,31.11,23.79c-.6.97-.95,2.1-.95,3.32,0,3.5,2.84,6.33,6.33,6.33s6.33-2.84,6.33-6.33-2.84-6.33-6.33-6.33c-.63,0-1.23.09-1.8.26l-8.87-70.85,141.83-102.02c.95,1.11,2.35,1.83,3.93,1.83,2.87,0,5.2-2.33,5.2-5.2,0-2.22-1.39-4.09-3.35-4.84l14.24-62.35,24.63-23.58-.48-17.78,54.83-33.39c1.11,1.82,3.11,3.04,5.4,3.04,3.5,0,6.33-2.84,6.33-6.33,0-3.09-2.22-5.66-5.15-6.22l15.8-83.08,88.23-89.84c.88.67,1.96,1.09,3.15,1.09,2.87,0,5.2-2.33,5.2-5.2,0-2.03-1.18-3.77-2.88-4.63Z" style="fill: #2b2d42; stroke-width: 0px;"/>
      <g style="mix-blend-mode: overlay;">
        <g style="mix-blend-mode: multiply; opacity: .5;">
          <path d="M538.91,646.85l-102.77-63.13,69.08,220.94,33.69-157.81Z" style="fill: #d1d2d2; opacity: .6; stroke-width: 0px;"/>
          <path d="M538.91,646.85l164.45-118.29-267.22,55.15,102.77,63.13Z" style="fill: #bcbcbe; opacity: .3; stroke-width: 0px;"/>
          <path d="M703.36,528.57l-201.59-65.4-65.63,120.55,267.22-55.15Z" style="fill: #d1d2d2; opacity: .6; stroke-width: 0px;"/>
          <path d="M737.8,377.81l-236.02,85.35,201.59,65.4,34.44-150.75Z" style="fill: #919396; opacity: .6; stroke-width: 0px;"/>
          <path d="M230.03,404.39l206.12,179.33,65.63-120.55-271.75-58.78Z" style="fill: #bcbcbe; opacity: .3; stroke-width: 0px;"/>
          <path d="M381.96,276.71l-151.93,127.68,271.75,58.78-119.81-186.45Z" style="fill: #919396; opacity: .6; stroke-width: 0px;"/>
          <path d="M381.96,276.71l-146.62-49.93-5.31,177.61,151.93-127.68Z" style="fill: #bcbcbe; opacity: .3; stroke-width: 0px;"/>
          <path d="M666.12,147.64l-164.35,315.53,236.02-85.35-71.68-230.17Z" style="fill: #d1d2d2; opacity: .6; stroke-width: 0px;"/>
          <path d="M912.32,200.11l-246.2-52.47,71.68,230.17,174.52-177.71Z" style="fill: #bcbcbe; opacity: .6; stroke-width: 0px;"/>
          <path d="M666.12,147.64l-147.57,49.98-16.78,265.54,164.35-315.53Z" style="fill: #bcbcbe; stroke-width: 0px;"/>
          <path d="M334.98,90.77l-99.64,136.01,146.62,49.93-46.98-185.94Z" style="fill: #d1d2d2; stroke-width: 0px;"/>
          <path d="M501.77,463.17l16.78-265.54-136.59,79.09,119.81,186.45Z" style="fill: #d1d2d2; stroke-width: 0px;"/>
          <path d="M518.55,197.62l-183.57-106.85,46.98,185.94,136.59-79.09Z" style="fill: #bcbcbe; stroke-width: 0px;"/>
          <path d="M666.12,147.64L414.35,1.64l104.2,195.98,147.57-49.98Z" style="fill: #d1d2d2; stroke-width: 0px;"/>
          <path d="M974.57,1.64h-158.73s96.48,198.47,96.48,198.47L974.57,1.64Z" style="fill: #919396; opacity: .8; stroke-width: 0px;"/>
          <path d="M815.83,1.64l-149.71,146,246.2,52.47L815.83,1.64Z" style="fill: #d1d2d2; stroke-width: 0px;"/>
          <path d="M334.98,90.77L191.43,1.64l43.9,225.14,99.64-136.01Z" style="fill: #bcbcbe; opacity: .6; stroke-width: 0px;"/>
          <path d="M414.35,1.64l-79.38,89.13,183.57,106.85L414.35,1.64Z" style="fill: #919396; opacity: .8; stroke-width: 0px;"/>
          <path d="M191.43,1.64H1.98s233.35,225.14,233.35,225.14L191.43,1.64Z" style="fill: #919396; opacity: .6; stroke-width: 0px;"/>
          <path d="M815.83,1.64h-182.27s32.55,146,32.55,146L815.83,1.64Z" style="fill: #919396; opacity: .6; stroke-width: 0px;"/>
          <path d="M414.35,1.64h-222.92s143.54,89.13,143.54,89.13L414.35,1.64Z" style="fill: #bcbcbe; opacity: .3; stroke-width: 0px;"/>
          <path d="M633.57,1.64h-219.21s251.77,146,251.77,146L633.57,1.64Z" style="fill: #bcbcbe; opacity: .6; stroke-width: 0px;"/>
        </g>
        <g style="opacity: .4;">
          <path d="M472.49,871.27l67.99-239.27-101.15,68.37,33.16,170.9Z" style="fill: #d1d2d2; opacity: .6; stroke-width: 0px;"/>
          <path d="M540.48,632l-263-59.73,161.85,128.1,101.15-68.37Z" style="fill: #bcbcbe; opacity: .3; stroke-width: 0px;"/>
          <path d="M540.48,632l-64.59-130.55-198.41,70.82,263,59.73Z" style="fill: #d1d2d2; stroke-width: 0px;"/>
          <path d="M277.48,572.27l198.41-70.82-232.3-92.43,33.89,163.26Z" style="fill: #919396; stroke-width: 0px;"/>
          <path d="M475.88,501.45l64.59,130.55,202.87-194.2-267.46,63.65Z" style="fill: #bcbcbe; opacity: .3; stroke-width: 0px;"/>
          <path d="M475.88,501.45l267.46-63.65-149.53-138.27-117.92,201.92Z" style="fill: #919396; opacity: .6; stroke-width: 0px;"/>
          <path d="M743.34,437.8l-5.22-192.34-144.31,54.07,149.53,138.27Z" style="fill: #bcbcbe; opacity: .3; stroke-width: 0px;"/>
          <path d="M243.59,409.02l232.3,92.43-161.75-341.7-70.54,249.26Z" style="fill: #d1d2d2; opacity: .6; stroke-width: 0px;"/>
          <path d="M243.59,409.02l70.54-249.26-242.31,56.82,171.77,192.45Z" style="fill: #bcbcbe; stroke-width: 0px;"/>
          <path d="M475.88,501.45l-16.51-287.57-145.24-54.13,161.75,341.7Z" style="fill: #bcbcbe; stroke-width: 0px;"/>
          <path d="M593.81,299.53l144.31-54.07-98.07-147.29-46.24,201.36Z" style="fill: #d1d2d2; stroke-width: 0px;"/>
          <path d="M593.81,299.53l-134.44-85.65,16.51,287.57,117.92-201.92Z" style="fill: #d1d2d2; stroke-width: 0px;"/>
          <path d="M593.81,299.53l46.24-201.36-180.68,115.72,134.44,85.65Z" style="fill: #bcbcbe; stroke-width: 0px;"/>
          <path d="M459.37,213.88L561.92,1.64l-247.79,158.11,145.24,54.13Z" style="fill: #d1d2d2; stroke-width: 0px;"/>
          <path d="M71.82,216.57L166.78,1.64H10.55s61.27,214.93,61.27,214.93Z" style="fill: #919396; opacity: .3; stroke-width: 0px;"/>
          <path d="M71.82,216.57l242.31-56.82L166.78,1.64l-94.96,214.93Z" style="fill: #d1d2d2; stroke-width: 0px;"/>
          <path d="M738.12,245.46L781.32,1.64l-141.28,96.52,98.07,147.29Z" style="fill: #bcbcbe; opacity: .6; stroke-width: 0px;"/>
          <path d="M459.37,213.88l180.68-115.72L561.92,1.64l-102.55,212.24Z" style="fill: #919396; stroke-width: 0px;"/>
          <path d="M738.12,245.46L967.78,1.64h-186.46s-43.21,243.82-43.21,243.82Z" style="fill: #d1d2d2; stroke-width: 0px;"/>
          <path d="M314.13,159.75L346.17,1.64h-179.39s147.35,158.11,147.35,158.11Z" style="fill: #919396; opacity: .3; stroke-width: 0px;"/>
          <path d="M640.05,98.17L781.32,1.64h-219.4s78.12,96.52,78.12,96.52Z" style="fill: #bcbcbe; opacity: .3; stroke-width: 0px;"/>
          <path d="M314.13,159.75L561.92,1.64h-215.75s-32.04,158.11-32.04,158.11Z" style="fill: #bcbcbe; opacity: .6; stroke-width: 0px;"/>
        </g>
        <g style="mix-blend-mode: multiply; opacity: .5;">
          <path d="M538.17,646.85l-102.77-63.13,69.08,220.94,33.69-157.81Z" style="fill: none; stroke: #5a5a5b;"/>
          <path d="M538.17,646.85l164.45-118.29-267.22,55.15,102.77,63.13Z" style="fill: none; stroke: #5a5a5b;"/>
          <path d="M702.61,528.57l-201.59-65.4-65.63,120.55,267.22-55.15Z" style="fill: none; stroke: #5a5a5b;"/>
          <path d="M737.05,377.81l-236.02,85.35,201.59,65.4,34.44-150.75Z" style="fill: none; stroke: #5a5a5b;"/>
          <path d="M229.28,404.39l206.12,179.33,65.63-120.55-271.75-58.78Z" style="fill: none; stroke: #5a5a5b;"/>
          <path d="M381.21,276.71l-151.93,127.68,271.75,58.78-119.81-186.45Z" style="fill: none; stroke: #5a5a5b;"/>
          <path d="M381.21,276.71l-146.62-49.93-5.31,177.61,151.93-127.68Z" style="fill: none; stroke: #5a5a5b;"/>
          <path d="M665.37,147.64l-164.35,315.53,236.02-85.35-71.68-230.17Z" style="fill: none; stroke: #5a5a5b;"/>
          <path d="M911.57,200.11l-246.2-52.47,71.68,230.17,174.52-177.71Z" style="fill: none; stroke: #5a5a5b;"/>
          <path d="M665.37,147.64l-147.57,49.98-16.78,265.54,164.35-315.53Z" style="fill: none; stroke: #5a5a5b;"/>
          <path d="M334.23,90.77l-99.64,136.01,146.62,49.93-46.98-185.94Z" style="fill: none; stroke: #5a5a5b;"/>
          <path d="M501.02,463.17l16.78-265.54-136.59,79.09,119.81,186.45Z" style="fill: none; stroke: #5a5a5b;"/>
          <path d="M517.8,197.62l-183.57-106.85,46.98,185.94,136.59-79.09Z" style="fill: none; stroke: #5a5a5b;"/>
          <path d="M665.37,147.64L413.61,1.64l104.2,195.98,147.57-49.98Z" style="fill: none; stroke: #5a5a5b;"/>
          <path d="M973.82,1.64h-158.73s96.49,198.47,96.49,198.47L973.82,1.64Z" style="fill: none; stroke: #5a5a5b;"/>
          <path d="M815.09,1.64l-149.71,146,246.2,52.47L815.09,1.64Z" style="fill: none; stroke: #5a5a5b;"/>
          <path d="M334.23,90.77L190.69,1.64l43.9,225.14,99.64-136.01Z" style="fill: none; stroke: #5a5a5b;"/>
          <path d="M413.61,1.64l-79.38,89.13,183.57,106.85L413.61,1.64Z" style="fill: none; stroke: #5a5a5b;"/>
          <path d="M190.69,1.64H1.24s233.35,225.14,233.35,225.14L190.69,1.64Z" style="fill: none; stroke: #5a5a5b;"/>
          <path d="M815.09,1.64h-182.27s32.55,146,32.55,146L815.09,1.64Z" style="fill: none; stroke: #5a5a5b;"/>
          <path d="M413.61,1.64h-222.92s143.54,89.13,143.54,89.13L413.61,1.64Z" style="fill: none; stroke: #5a5a5b;"/>
          <path d="M632.82,1.64h-219.21s251.77,146,251.77,146L632.82,1.64Z" style="fill: none; stroke: #5a5a5b;"/>
          <path d="M504.48,799.46c-2.87,0-5.2,2.33-5.2,5.2s2.33,5.2,5.2,5.2c2.87,0,5.2-2.33,5.2-5.2,0-2.87-2.33-5.2-5.2-5.2Z" style="fill: #5a5a5b; stroke-width: 0px;"/>
          <path d="M435.4,578.52c-2.87,0-5.2,2.33-5.2,5.2,0,2.87,2.33,5.2,5.2,5.2s5.2-2.33,5.2-5.2-2.33-5.2-5.2-5.2Z" style="fill: #5a5a5b; stroke-width: 0px;"/>
          <path d="M538.17,641.64c-2.87,0-5.2,2.33-5.2,5.2s2.33,5.2,5.2,5.2,5.2-2.33,5.2-5.2-2.33-5.2-5.2-5.2Z" style="fill: #5a5a5b; stroke-width: 0px;"/>
          <path d="M501.02,457.97c-2.87,0-5.2,2.33-5.2,5.2s2.33,5.2,5.2,5.2,5.2-2.33,5.2-5.2-2.33-5.2-5.2-5.2Z" style="fill: #5a5a5b; stroke-width: 0px;"/>
          <path d="M730.6,377.81c0,2.87,2.33,5.2,5.2,5.2,2.87,0,5.2-2.33,5.2-5.2s-2.33-5.2-5.2-5.2-5.2,2.33-5.2,5.2Z" style="fill: #5a5a5b; stroke-width: 0px;"/>
          <path d="M660.17,147.64c0,2.87,2.33,5.2,5.2,5.2,2.87,0,5.2-2.33,5.2-5.2s-2.33-5.2-5.2-5.2-5.2,2.33-5.2,5.2Z" style="fill: #5a5a5b; stroke-width: 0px;"/>
          <path d="M512.61,197.62c0,2.87,2.33,5.2,5.2,5.2,2.87,0,5.2-2.33,5.2-5.2,0-2.87-2.33-5.2-5.2-5.2-2.87,0-5.2,2.33-5.2,5.2Z" style="fill: #5a5a5b; stroke-width: 0px;"/>
          <path d="M375.79,276.71c0,2.87,2.33,5.2,5.2,5.2s5.2-2.33,5.2-5.2-2.33-5.2-5.2-5.2c-2.87,0-5.2,2.33-5.2,5.2Z" style="fill: #5a5a5b; stroke-width: 0px;"/>
          <path d="M329.03,90.77c0,2.87,2.33,5.2,5.2,5.2,2.87,0,5.2-2.33,5.2-5.2s-2.33-5.2-5.2-5.2c-2.87,0-5.2,2.33-5.2,5.2Z" style="fill: #5a5a5b; stroke-width: 0px;"/>
          <path d="M229.39,226.78c0,2.87,2.33,5.2,5.2,5.2,2.87,0,5.2-2.33,5.2-5.2s-2.33-5.2-5.2-5.2-5.2,2.33-5.2,5.2Z" style="fill: #5a5a5b; stroke-width: 0px;"/>
          <path d="M224.19,404.39c0,2.87,2.33,5.2,5.2,5.2s5.2-2.33,5.2-5.2c0-2.87-2.33-5.2-5.2-5.2s-5.2,2.33-5.2,5.2Z" style="fill: #5a5a5b; stroke-width: 0px;"/>
          <path d="M906.25,200.09c0,2.87,2.33,5.2,5.2,5.2,2.87,0,5.2-2.33,5.2-5.2s-2.33-5.2-5.2-5.2c-2.87,0-5.2,2.33-5.2,5.2Z" style="fill: #5a5a5b; stroke-width: 0px;"/>
          <path d="M697.42,528.57c0,2.87,2.33,5.2,5.2,5.2s5.2-2.33,5.2-5.2-2.33-5.2-5.2-5.2c-2.87,0-5.2,2.33-5.2,5.2Z" style="fill: #5a5a5b; stroke-width: 0px;"/>
        </g>
        <g style="opacity: .4;">
          <path d="M566.48,710.86l-21.33-170.43-73.33,98.04,94.66,72.39Z" style="fill: none; stroke: #919396;"/>
          <path d="M545.15,540.43l-216.96,7.16,143.63,90.88,73.33-98.04Z" style="fill: none; stroke: #919396;"/>
          <path d="M545.15,540.43l-107.24-122.08-109.72,129.25,216.96-7.16Z" style="fill: none; stroke: #919396;"/>
          <path d="M328.19,547.59l109.72-129.25-172.77-19.93,63.05,149.18Z" style="fill: none; stroke: #919396;"/>
          <path d="M437.91,418.34l107.24,122.08,257.94-157.09-365.18,35.01Z" style="fill: none; stroke: #919396;"/>
          <path d="M437.91,418.34l365.18-35.01-177.75-91.56-187.43,126.57Z" style="fill: none; stroke: #919396;"/>
          <path d="M803.09,383.34l31.08-163.47-208.83,71.91,177.75,91.56Z" style="fill: none; stroke: #919396;"/>
          <path d="M265.15,398.42l172.77,19.93-136.05-224.63-36.71,204.7Z" style="fill: none; stroke: #919396;"/>
          <path d="M265.15,398.42l36.71-204.7-213.37,17.26,176.66,187.44Z" style="fill: none; stroke: #919396;"/>
          <path d="M437.91,418.34l21.76-143.66-157.81-80.97,136.05,224.63Z" style="fill: none; stroke: #919396;"/>
          <path d="M625.34,291.78l208.83-71.91-80.64-107.68-128.19,179.6Z" style="fill: none; stroke: #919396;"/>
          <path d="M625.34,291.78l-165.67-17.09-21.76,143.66,187.43-126.57Z" style="fill: none; stroke: #919396;"/>
          <path d="M625.34,291.78l128.19-179.6-293.86,162.5,165.67,17.09Z" style="fill: none; stroke: #919396;"/>
          <path d="M459.67,274.68L592.55,1.64l-290.69,192.07,157.81,80.97Z" style="fill: none; stroke: #919396;"/>
          <path d="M88.49,210.98L186.15,1.64H25.48s63.01,209.34,63.01,209.34Z" style="fill: none; stroke: #919396;"/>
          <path d="M88.49,210.98l213.37-17.26L186.15,1.64l-97.67,209.34Z" style="fill: none; stroke: #919396;"/>
          <path d="M834.17,219.87L818.2,1.64l-64.67,110.54,80.64,107.68Z" style="fill: none; stroke: #919396;"/>
          <path d="M459.67,274.68l293.86-162.5L592.55,1.64l-132.88,273.04Z" style="fill: none; stroke: #919396;"/>
          <path d="M834.17,219.87L1009.97,1.64h-191.77s15.97,218.23,15.97,218.23Z" style="fill: none; stroke: #919396;"/>
          <path d="M301.86,193.72L370.65,1.64h-184.5s115.71,192.07,115.71,192.07Z" style="fill: none; stroke: #919396;"/>
          <path d="M753.54,112.18L818.2,1.64h-225.65s160.98,110.54,160.98,110.54Z" style="fill: none; stroke: #919396;"/>
          <path d="M301.86,193.72L592.55,1.64h-221.9s-68.79,192.07-68.79,192.07Z" style="fill: none; stroke: #919396;"/>
          <path d="M82.15,210.98c0,3.5,2.84,6.33,6.33,6.33s6.33-2.84,6.33-6.33c0-3.5-2.84-6.33-6.33-6.33s-6.33,2.84-6.33,6.33Z" style="fill: #919396; stroke-width: 0px;"/>
          <path d="M258.81,398.42c0,3.5,2.84,6.33,6.33,6.33s6.33-2.84,6.33-6.33c0-3.5-2.84-6.33-6.33-6.33-3.5,0-6.33,2.84-6.33,6.33Z" style="fill: #919396; stroke-width: 0px;"/>
          <path d="M321.86,547.59c0,3.5,2.84,6.33,6.33,6.33,3.5,0,6.33-2.84,6.33-6.33s-2.84-6.33-6.33-6.33c-3.5,0-6.33,2.84-6.33,6.33Z" style="fill: #919396; stroke-width: 0px;"/>
          <path d="M465.49,638.47c0,3.5,2.84,6.33,6.33,6.33s6.33-2.84,6.33-6.33-2.84-6.33-6.33-6.33-6.33,2.84-6.33,6.33Z" style="fill: #919396; stroke-width: 0px;"/>
          <path d="M537.41,540.43c0,3.5,2.84,6.33,6.33,6.33s6.33-2.84,6.33-6.33-2.84-6.33-6.33-6.33c-3.5,0-6.33,2.84-6.33,6.33Z" style="fill: #919396; stroke-width: 0px;"/>
          <path d="M431.58,418.34c0,3.5,2.84,6.33,6.33,6.33s6.33-2.84,6.33-6.33-2.84-6.33-6.33-6.33-6.33,2.84-6.33,6.33Z" style="fill: #919396; stroke-width: 0px;"/>
          <path d="M796.76,383.34c0,3.5,2.84,6.33,6.33,6.33s6.33-2.84,6.33-6.33c0-3.5-2.84-6.33-6.33-6.33s-6.33,2.84-6.33,6.33Z" style="fill: #919396; stroke-width: 0px;"/>
          <path d="M619.01,291.78c0,3.5,2.84,6.33,6.33,6.33s6.33-2.84,6.33-6.33-2.84-6.33-6.33-6.33-6.33,2.84-6.33,6.33Z" style="fill: #919396; stroke-width: 0px;"/>
          <circle cx="459.67" cy="274.68" r="6.33" style="fill: #919396; stroke-width: 0px;"/>
          <path d="M296.11,193.72c0,3.5,2.84,6.33,6.33,6.33,3.5,0,6.33-2.84,6.33-6.33s-2.84-6.33-6.33-6.33-6.33,2.84-6.33,6.33Z" style="fill: #919396; stroke-width: 0px;"/>
          <path d="M827.84,219.87c0,3.5,2.84,6.33,6.33,6.33s6.33-2.84,6.33-6.33-2.84-6.33-6.33-6.33-6.33,2.84-6.33,6.33Z" style="fill: #919396; stroke-width: 0px;"/>
          <path d="M747.2,112.18c0,3.5,2.84,6.33,6.33,6.33,3.5,0,6.33-2.84,6.33-6.33,0-3.5-2.84-6.33-6.33-6.33-3.5,0-6.33,2.84-6.33,6.33Z" style="fill: #919396; stroke-width: 0px;"/>
          <path d="M561.19,710.86c0,3.5,2.84,6.33,6.33,6.33s6.33-2.84,6.33-6.33c0-3.5-2.84-6.33-6.33-6.33s-6.33,2.84-6.33,6.33Z" style="fill: #919396; stroke-width: 0px;"/>
        </g>
      </g>
    </g>
  </g>
</svg>